<svg    x="0" y="0" viewBox="0 0 25 25" style="enable-background:new 0 0 512 512" xml:space="preserve" class=""><g><g id="Layer_21" data-name="Layer 21"><path d="M18.21,2H6.79A2.83,2.83,0,0,0,4,4.86V21.2a1.67,1.67,0,0,0,1,1.54,1.57,1.57,0,0,0,1.74-.27l5.35-4.74a.69.69,0,0,1,.86,0l5.35,4.74a1.59,1.59,0,0,0,1.74.27,1.67,1.67,0,0,0,1-1.54V4.86A2.83,2.83,0,0,0,18.21,2ZM20,21.2a.67.67,0,0,1-.39.63.61.61,0,0,1-.67-.1L13.59,17a1.69,1.69,0,0,0-2.18,0L6.06,21.73a.61.61,0,0,1-.67.1A.67.67,0,0,1,5,21.2V4.86A1.83,1.83,0,0,1,6.79,3H18.21A1.83,1.83,0,0,1,20,4.86Z" ></path></g></g></svg>