<svg   width="512" height="512" x="0" y="0" viewBox="0 0 24 24" style="enable-background:new 0 0 512 512" xml:space="preserve" class=""><g><path clip-rule="evenodd" d="m11.6464 3.64645c.1953-.19527.5119-.19527.7072 0l3 3c.1952.19526.1952.51184 0 .7071l-3 3.00005c-.1953.1952-.5119.1952-.7072 0l-2.99995-3.00005c-.19527-.19526-.19527-.51184 0-.7071zm-1.93929 3.35355 2.29289 2.29289 2.2929-2.29289-2.2929-2.29289zm-3.06066 1.64645c.19526-.19527.51184-.19527.7071 0l3.00005 2.99995c.1952.1953.1952.5119 0 .7072l-3.00005 3c-.19526.1952-.51184.1952-.7071 0l-3-3c-.19527-.1953-.19527-.5119 0-.7072zm9.99995 0c.1953-.19527.5119-.19527.7072 0l3 2.99995c.1952.1953.1952.5119 0 .7072l-3 3c-.1953.1952-.5119.1952-.7072 0l-3-3c-.1952-.1953-.1952-.5119 0-.7072zm-11.93929 3.35355 2.29289 2.2929 2.29289-2.2929-2.29289-2.29289zm9.99999 0 2.2929 2.2929 2.2929-2.2929-2.2929-2.29289zm-4.99999 5 2.29289 2.2929 2.2929-2.2929-2.2929-2.2929zm1.93929-3.3536c.1953-.1952.5119-.1952.7072 0l3 3c.1952.1953.1952.5119 0 .7072l-3 3c-.1953.1952-.5119.1952-.7072 0l-2.99995-3c-.19527-.1953-.19527-.5119 0-.7072z" fill-rule="evenodd" data-original="#000000" class=""></path></g></svg>