<svg width="164" height="28" viewBox="0 0 164 28" fill="none" xmlns="http://www.w3.org/2000/svg">
<path d="M15 0L18.3677 10.3647H29.2658L20.449 16.7705L23.8168 27.1353L15 20.7295L6.1832 27.1353L9.55091 16.7705L0.734131 10.3647H11.6323L15 0Z" fill="#00B67A"/>
<path d="M49 0L52.3677 10.3647H63.2658L54.4491 16.7705L57.8168 27.1353L49 20.7295L40.1832 27.1353L43.5509 16.7705L34.7342 10.3647H45.6323L49 0Z" fill="#00B67A"/>
<path d="M83 0L86.3677 10.3647H97.2658L88.4491 16.7705L91.8168 27.1353L83 20.7295L74.1832 27.1353L77.5509 16.7705L68.7342 10.3647H79.6323L83 0Z" fill="#00B67A"/>
<path d="M116.266 0L119.634 10.3647H130.532L121.715 16.7705L125.083 27.1353L116.266 20.7295L107.449 27.1353L110.817 16.7705L102 10.3647H112.898L116.266 0Z" fill="#00B67A"/>
<path d="M149.266 0L152.634 10.3647H163.532L154.715 16.7705L158.083 27.1353L149.266 20.7295L140.449 27.1353L143.817 16.7705L135 10.3647H145.898L149.266 0Z" fill="#636464"/>
</svg>
