<svg  x="0" y="0" viewBox="0 0 512 512" style="enable-background:new 0 0 512 512" xml:space="preserve"><g><g><g><path d="m377.333 79.667-34.833-72.167h-251.5c-13.807 0-25 11.193-25 25v447c0 13.807 11.193 25 25 25h295.984c5.475 0 10.535-1.765 14.653-4.75h21.069v-404.272z" fill="#eaf6ff" data-original="#eaf6ff"></path><path d="m422.707 95.478-10.722-3.737v19.259 368.5c0 13.807-11.193 25-25 25h34.015c13.807 0 25-11.193 25-25v-368.5z" fill="#d8ecfe" data-original="#d8ecfe"></path><path d="m367.5 111h78.5l-103.5-103.5v78.5c0 13.807 11.193 25 25 25z" fill="#b3dafe" data-original="#b3dafe"></path></g><g><path d="m123.714 497h-32.714c-9.649 0-17.5-7.851-17.5-17.5v-447c0-9.649 7.851-17.5 17.5-17.5h129.942c4.142 0 7.5-3.358 7.5-7.5s-3.358-7.5-7.5-7.5h-129.942c-17.92 0-32.5 14.58-32.5 32.5v447c0 17.92 14.58 32.5 32.5 32.5h32.714c4.142 0 7.5-3.358 7.5-7.5s-3.358-7.5-7.5-7.5z" fill="#000000" data-original="#000000"></path><path d="m386 164.781h-260c-4.142 0-7.5 3.358-7.5 7.5s3.358 7.5 7.5 7.5h260c4.142 0 7.5-3.358 7.5-7.5s-3.358-7.5-7.5-7.5z" fill="#000000" data-original="#000000"></path><path d="m386 231.448h-260c-4.142 0-7.5 3.358-7.5 7.5s3.358 7.5 7.5 7.5h260c4.142 0 7.5-3.358 7.5-7.5s-3.358-7.5-7.5-7.5z" fill="#000000" data-original="#000000"></path><path d="m386 298.115h-260c-4.142 0-7.5 3.358-7.5 7.5s3.358 7.5 7.5 7.5h260c4.142 0 7.5-3.358 7.5-7.5s-3.358-7.5-7.5-7.5z" fill="#000000" data-original="#000000"></path><path d="m386 364.781h-260c-4.142 0-7.5 3.358-7.5 7.5s3.358 7.5 7.5 7.5h260c4.142 0 7.5-3.358 7.5-7.5s-3.358-7.5-7.5-7.5z" fill="#000000" data-original="#000000"></path><path d="m343.565.08c-.411-.042-1.001-.08-1.065-.08h-86.558c-4.142 0-7.5 3.358-7.5 7.5s3.358 7.5 7.5 7.5h79.058v71c0 17.92 14.58 32.5 32.5 32.5h71v361c0 9.649-7.851 17.5-17.5 17.5h-262.286c-4.142 0-7.5 3.358-7.5 7.5s3.358 7.5 7.5 7.5h262.286c17.92 0 32.5-14.58 32.5-32.5v-368.5c0-1.892-.762-3.869-2.197-5.303l-103.5-103.5c-1.366-1.368-3.223-2.02-4.238-2.117zm23.935 103.42c-9.649 0-17.5-7.851-17.5-17.5v-60.394l77.894 77.894z" fill="#000000" data-original="#000000"></path></g></g></g></svg>