<svg  viewBox="0 0 512.00067 512" style="enable-background:new 0 0 512 512" xml:space="preserve" class=""><g><path d="m69.820312 360.851562c0 6.425782 5.210938 11.636719 11.636719 11.636719h349.09375c6.425781 0 11.636719-5.210937 11.636719-11.636719v-34.910156h-372.367188zm0 0" class=""></path><path d="m477.097656 69.941406c-19.273437.019532-34.890625 15.636719-34.910156 34.90625.054688 1.417969.199219 2.832032.425781 4.234375l-101.382812 50.691407-66.691407-95.277344c16.339844-10.238282 21.28125-31.78125 11.042969-48.117188-10.234375-16.3398435-31.78125-21.285156-48.117187-11.046875-16.335938 10.242188-21.28125 31.78125-11.042969 48.121094 2.800781 4.464844 6.574219 8.242187 11.042969 11.042969l-66.691406 95.277344-101.382813-50.691407c.230469-1.402343.375-2.816406.429687-4.234375.09375-19.277344-15.460937-34.984375-34.742187-35.078125s-34.984375 15.460938-35.078125 34.738281c-.0859375 17.699219 13.085938 32.660157 30.652344 34.820313l39.167968 163.339844h372.367188l39.164062-163.339844c19.09375-2.304687 32.699219-19.652344 30.394532-38.742187-2.117188-17.519532-17.003906-30.6875-34.648438-30.644532zm0 0" class=""></path></g></svg>