<svg width="1085" height="1087" viewBox="0 0 1085 1087" fill="none" xmlns="http://www.w3.org/2000/svg">
<path d="M626 1C477 75.8333 179.3 268 180.5 438C182 650.5 478 1113 1078 1083.5" stroke="#D9D9D9"/>
<path d="M812.5 2.5C699.167 61.1667 476 243 490 501C504 759 781.167 997.833 918 1085" stroke="#D9D9D9"/>
<path d="M239 1083.5C368 873.5 657.7 435.4 784.5 363C911.3 290.6 1037 250.833 1084 240M82 1083.5C62.8333 966.667 44.2 683.7 123 486.5C221.5 240 641 69 1084 74.5" stroke="#D9D9D9"/>
<path d="M380 3.5C263.167 64.6667 24.1 253.7 2.5 520.5C-19.1 787.3 146.5 1009 232 1086.5" stroke="#D9D9D9"/>
<circle cx="132.5" cy="209.5" r="11.5" fill="#694AFF"/>
<circle cx="23.5" cy="729.5" r="11.5" fill="#FDB600"/>
<circle cx="347.5" cy="795.5" r="11.5" fill="#694AFF"/>
<circle cx="358.5" cy="245.5" r="11.5" fill="#694AFF"/>
<circle cx="500.5" cy="74.5" r="11.5" fill="#694AFF"/>
<circle cx="837.5" cy="1025.5" r="11.5" fill="#FDB600"/>
<circle cx="628.5" cy="818.5" r="11.5" fill="#FDB600"/>
<circle cx="189.5" cy="382.5" r="11.5" fill="#FDB600"/>
</svg>
