<svg width="1922" height="462" viewBox="0 0 1922 462" fill="none" xmlns="http://www.w3.org/2000/svg">
<path d="M866 155.5C618 158.7 185.333 53.5 0 0.5V178C173.167 219.5 588.8 304.1 866 310.5C1143.2 316.9 1685.17 236.833 1921.5 196V24.5C1673 66.8333 1114 152.3 866 155.5Z" fill="#694AFF"/>
<path d="M866 306.5C618 309.7 185.333 204.5 0 151.5V329C173.167 370.5 588.8 455.1 866 461.5C1143.2 467.9 1685.17 387.833 1921.5 347V175.5C1673 217.833 1114 303.3 866 306.5Z" fill="#A18DFF"/>
<path d="M1921 175.5L1723 208" stroke="white" stroke-width="2"/>
<path d="M0.5 151.5L150 191.5" stroke="white" stroke-width="2"/>
</svg>
