<svg   x="0" y="0" viewBox="0 0 24 24" style="enable-background:new 0 0 512 512" xml:space="preserve" class=""><g><g xmlns="http://www.w3.org/2000/svg"><path d="m20.5 4.5h-17c-.8286133 0-1.5.6713867-1.5 1.5s.6713867 1.5 1.5 1.5h17c.8286133 0 1.5-.6713867 1.5-1.5s-.6713867-1.5-1.5-1.5z"   class=""></path><path d="m17.6665039 10.5h-14.1665039c-.8286133 0-1.5.6713867-1.5 1.5s.6713867 1.5 1.5 1.5h14.1665039c.8286133 0 1.5-.6713867 1.5-1.5s-.6713867-1.5-1.5-1.5z"  data-original="#000000" class=""></path><path d="m12 16.5h-8.5c-.8286133 0-1.5.6713867-1.5 1.5s.6713867 1.5 1.5 1.5h8.5c.8286133 0 1.5-.6713867 1.5-1.5s-.6713867-1.5-1.5-1.5z"  data-original="#000000" class=""></path></g></g></svg>